# xmcd
#
# Track frame offsets:
#	150
#	26041
#	43406
#	67253
#	93571
#	123723
#	140536
#	158344
#	180663
#	200564
#	230564
#	264839
#	282780
#	316145
#	344781
#
# Disc length: 4852 seconds
#
# Revision: 1
# Processed by: cddbd v1.5.2PL0 Copyright (c) Steve Scherf et al.
# Submitted via: audiograbber 1.83.01
#
DISCID=e612f20f
DTITLE=Various Artist - Mega Hits The Dance Remixes CD1
DYEAR=2007
DGENRE=Dance
TTITLE0=Sugababes - About You Now (Spencer and Hill Remix)
TTITLE1=Rihanna ft. Jay-Z - Umbrella (Seamus Haji and Paul Emanuel Radio Edit)
TTITLE2=Nelly Furtado - Say It Right (Peter Rauhofer Remix 1)
TTITLE3=Scissor Sisters - I Don't Feel Like Dancing (Linus Loves Dub)
TTITLE4=Ne-Yo - Because Of You (Sunfreakz Dub)
TTITLE5=The Black Eyed Peas - My Humps (Lil Jon Remix Version)
TTITLE6=Mary J. Blige - Be Without You (Moto Blanco Vocal Edit)
TTITLE7=Amy Winehouse - Rehab (Desert Eagle Discs Vocal)
TTITLE8=Mika - Grace Kelly (Tom Neville Remix Radio Edit)
TTITLE9=Feist - My Moon My Man (Boys Noize Classic Mix)
TTITLE10=Bodyrockers - I Like The Way (Junior Jack Rock Da House Dub)
TTITLE11=The Killers - Read My Mind (Pet Shop Boys Radio Edit)
TTITLE12=Jan Delay - Klar (Tobitob Remix)
TTITLE13=Robyn Whith Kleerup - With Every Heartbeat (DJ Remix Version)
TTITLE14=Ich and Ich - Vom Selben Stern (Bee Low Radio Remix)
EXTD=
EXTT0=
EXTT1=
EXTT2=
EXTT3=
EXTT4=
EXTT5=
EXTT6=
EXTT7=
EXTT8=
EXTT9=
EXTT10=
EXTT11=
EXTT12=
EXTT13=
EXTT14=
PLAYORDER=
